<svg xmlns="http://www.w3.org/2000/svg" width="279" height="279" fill="none"><path fill="#C7F464" d="M272 139.5c0 73.178-59.322 132.5-132.5 132.5S7 212.678 7 139.5C7 66.323 66.322 7 139.5 7S272 66.323 272 139.5Z"/><path stroke="#C7F464" stroke-miterlimit="10" stroke-width="12.753" d="M272 139.5c0 73.178-59.322 132.5-132.5 132.5S7 212.678 7 139.5C7 66.323 66.322 7 139.5 7S272 66.323 272 139.5Z"/><path fill="#fff" d="M199.196 156.683c1.878-.857 3.537-2.102 4.995-3.756.4-.454.775-.93 1.13-1.421v-28.39c-1.606-.751-3.646-1.36-6.125-1.821v35.388ZM83.235 123.116v28.391c.355.491.73.966 1.13 1.42 1.457 1.654 3.116 2.899 4.995 3.756v-35.388c-2.48.461-4.52 1.07-6.125 1.821ZM171.243 67.861l25.888 24.608h-25.888V67.861ZM89.36 66.153h75.763V98.59h34.073v7.496c1.997.103 4.058.221 6.125.351v-13.71l-34.078-32.698H86.297a3.063 3.063 0 0 0-3.062 3.062v43.346c2.066-.13 4.127-.247 6.125-.351V66.153ZM199.196 211.688H89.359v-40.132a33.413 33.413 0 0 1-6.124-1.814v45.009a3.062 3.062 0 0 0 3.062 3.062h115.961a3.063 3.063 0 0 0 3.063-3.062v-45.01a33.354 33.354 0 0 1-6.125 1.815v40.132Z"/><path fill="#2C2927" d="M182.846 229.669c0 1.127-17.267 2.041-38.568 2.041s-38.569-.914-38.569-2.041c0-1.126 17.268-2.04 38.569-2.04 21.301 0 38.568.914 38.568 2.04Z" opacity=".2"/><path fill="#fff" d="M88.193 65.271v147.657h112.793V98.18l-2.12-6.21-26.586-24.966-6.284-1.733H88.193Z"/><path fill="#fff" d="m89.36 106.086-6.125.351v64.076l6.125 2.436v-66.863ZM199.196 106.086l6.125.351v63.304l-6.125 1.815v-65.47Z"/><path fill="#556270" d="M172.309 138.753a2.403 2.403 0 1 1 0-4.806 2.403 2.403 0 0 1 0 4.806Zm0-12.467a9.504 9.504 0 0 0-3.359.62c1.754.43 3.06 2 3.06 3.886a4.012 4.012 0 0 1-4.012 4.012c-2.104 0-3.81-1.625-3.978-3.685a9.474 9.474 0 0 0-1.248 4.705 9.537 9.537 0 0 0 19.074 0c0-5.268-4.27-9.538-9.537-9.538Zm-56.063 12.467a2.403 2.403 0 1 1 0-4.806 2.403 2.403 0 0 1 0 4.806Zm0-12.467a9.504 9.504 0 0 0-3.359.62c1.754.43 3.06 2 3.06 3.886a4.012 4.012 0 0 1-4.012 4.012c-2.103 0-3.81-1.625-3.978-3.685a9.474 9.474 0 0 0-1.248 4.705 9.537 9.537 0 0 0 19.074 0c0-5.268-4.27-9.538-9.537-9.538Zm28.032 62.506c10 0 19.153-3.128 26.242-8.308h-52.485c7.09 5.18 16.243 8.308 26.243 8.308Zm63.06-33.092c-3.857 4.377-8.975 6.595-15.215 6.595h-.093c-24.982-.09-31.665-12.241-35.165-25.358-1.655-6.192-1.25-10.576 1.272-13.795 3.759-4.8 12.355-7.136 26.274-7.136l.456.001c27.682.101 28.798 7.814 29.877 15.274.511 3.524-.322 16.377-7.406 24.419Zm-75.648-18.763c-3.501 13.117-10.183 25.268-35.165 25.358h-.093c-6.24 0-11.358-2.218-15.215-6.595-7.085-8.042-7.916-20.895-7.406-24.419 1.08-7.46 2.195-15.173 29.877-15.274l.456-.001c13.918 0 22.515 2.336 26.274 7.136 2.522 3.219 2.927 7.603 1.272 13.795Zm94.079-24.219h-.001c-6.5-1.492-31.722-2.904-40.877-2.937l-.315-.001c-11.742 0-21.667 2.407-29.673 4.349-4.225 1.027-7.882 1.914-10.628 2.108-2.746-.194-6.398-1.081-10.624-2.108-8.005-1.942-17.93-4.349-29.671-4.349l-.316.001c-9.155.033-34.377 1.445-40.876 2.937h-.002l-1.07.248.044 12.41 1.227.131c.536.057 3.304 1.107 5.161 16.216.977 7.956 5.81 26.428 29.532 26.428h.166c10.309-.039 19.362-2.435 26.18-6.93 6.607-4.354 11.028-12.18 12.479-18.006 2.918-11.72 5.142-13.967 7.773-13.777 2.63-.19 4.854 2.057 7.772 13.777 1.45 5.826 5.871 13.652 12.479 18.006 6.819 4.495 15.872 6.891 26.181 6.93h.165c23.722 0 28.556-18.472 29.532-26.428 1.857-15.109 4.625-16.159 5.161-16.216l1.226-.131.045-12.41-1.07-.248Z"/><path fill="#5EBFBC" d="m171.243 60.029 34.078 32.698h-31.038a3.04 3.04 0 0 1-3.04-3.04V60.029Z"/></svg>